<svg version="1.1" id="logo" xmlns="http://www.w3.org/2000/svg" xmlns:xlink="http://www.w3.org/1999/xlink" x="0px" y="0px" viewBox="0 0 160 47.2" enable-background="new 0 0 160 47.2" xml:space="preserve">
  <g id="bike">
    <path fill="none" stroke="#ffffff" stroke-width="2" d="M89.2,4.9c0,4.7-4,8.6-9.1,8.6S70.9,9.7,70.9,5V4.9"/>
    <path fill="#ffffff" d="M79.5,5.9h1.3c0.4,0,0.6,0.3,0.6,0.6v12.3c0,0.4-0.3,0.6-0.6,0.6h-1.3c-0.4,0-0.6-0.3-0.6-0.6V6.6
      C78.9,6.2,79.1,5.9,79.5,5.9z"/>
    <ellipse fill="none" stroke="#ffffff" stroke-width="2" cx="71.1" cy="3.5" rx="2.5" ry="2.5"/>
    <circle fill="none" stroke="#ffffff" stroke-width="2" cx="88.9" cy="3.5" r="2.5"/>
  </g>
  <g id="text">
    <path fill="#ffffff" d="M150.1,29.2v-1.3c0-1.4,0-2.1-0.7-2.6c-0.5-0.3-1.1-0.5-1.7-0.4H146v6.7h1.8c0.6,0.1,1.2-0.1,1.7-0.6
      C150,30.5,150.2,29.9,150.1,29.2L150.1,29.2z"/>
    <path fill="#ffffff" d="M136.9,28.4c0.1-0.9,0-1.8-0.4-2.6c-0.1-0.3-0.4-0.6-0.7-0.7c-0.7-0.4-1.6-0.3-2.3,0.1
      c-0.6,0.5-1,1.3-0.9,2.1v8.6c0,0.6,0,1.2,0.2,1.8c0.3,0.8,1.1,1.3,2,1.2c0.4,0,0.9-0.1,1.2-0.4c0.7-0.6,1-1.5,0.9-2.4V28.4
      L136.9,28.4z"/>
    <path fill="#ffffff" d="M55.3,28.5v-1.9c0-0.3,0-0.6-0.1-0.9c-0.3-0.8-1.2-0.8-1.9-0.8h-1.4v5.8H53c0.4,0,0.7,0,1.1-0.1
      C54.9,30.3,55.4,29.4,55.3,28.5L55.3,28.5z"/>
    <path fill="#ffffff" d="M55.8,34c0-0.4,0-0.7-0.1-1.1c-0.4-1.1-1.6-1.3-2.7-1.3h-1.1v7h1.9c0.5,0.1,1-0.1,1.5-0.4
      c0.5-0.4,0.6-0.9,0.6-2.1L55.8,34L55.8,34z"/>
    <path fill="#ffffff" d="M150,15.2H10c-5.5,0-10,4.5-10,10v12c0,5.5,4.5,10,10,10h140c5.5,0,10-4.5,10-10v-12
      C160,19.7,155.5,15.2,150,15.2z M15,25h-2.8v14.6h-1.1V25H8.3v-1H15V25z M27.3,39.6h-1.1v-7.7h-4.1v7.7H21V24h1.1v6.9h4.1V24h1.1
      V39.6z M40.1,25h-4.6l0.1,6h3.7v0.9h-3.7v6.7h4.5v1h-5.6V24h5.6V25z M56,39c-0.5,0.4-1.3,0.6-2.1,0.6h-3.2V24h3
      c0.7-0.1,1.5,0.2,2.1,0.7c0.4,0.5,0.6,1.1,0.5,1.8v2.3c0,0.4,0,0.7-0.1,1.1c-0.3,0.7-1,1.2-1.8,1.3c0.6,0,1.2,0.2,1.7,0.6
      c0.6,0.6,0.9,1.5,0.7,2.3v2.7C56.9,37.6,56.6,38.4,56,39z M64.8,39.6h-1.1V24h1.1V39.6z M78.2,39.6h-1.1l-2.9-8.1L73,33.7v5.9h-1.1
      V24H73v7.6l4-7.6h1.2l-3.4,6.2L78.2,39.6z M90,25h-4.6l0.1,6h3.7v0.9h-3.7v6.7H90v1h-5.6V24H90V25z M110.8,38.7
      c-0.6,0.8-1.7,1.2-2.7,1.1c-0.6,0-1.3-0.1-1.8-0.4c-0.2-0.1-0.4-0.2-0.5-0.4c-0.4-0.3-0.6-0.7-0.8-1.1c-0.1-0.4-0.2-0.8-0.2-1.3
      v-2.2h1.1v1.3c0,0.3,0,0.6,0,1c-0.1,1.1,0.8,2.1,2,2.2c0.1,0,0.3,0,0.4,0c0.4,0,0.8-0.1,1.2-0.3c0.6-0.3,0.9-1,0.9-2.3
      c0.1-0.8-0.1-1.6-0.6-2.2c-0.5-0.7-1.1-1.4-1.8-2c-0.7-0.6-1.3-1.3-1.8-2c-0.6-0.8-0.9-1.9-0.9-2.9c0-0.4,0-0.8,0.1-1.2
      c0.2-1.4,1.5-2.4,2.9-2.3c0.7,0,1.3,0.1,1.9,0.4c1.1,0.7,1.1,2,1.1,3.2v1.1h-1.1V27c0-0.3,0-0.7-0.1-1c-0.1-0.9-0.9-1.5-1.8-1.4
      c-0.4,0-0.8,0.1-1.1,0.3c-0.6,0.5-0.9,1.3-0.8,2.1c0,1.2,0.5,2.4,1.4,3.2c0.2,0.4,0.6,0.8,1,1.2c0.6,0.5,1.1,1.1,1.6,1.7
      c0.7,0.9,1.1,2,1,3.1C111.5,37.1,111.3,38,110.8,38.7z M124.5,39.6h-1.1v-7.7h-4.1v7.7h-1.1V24h1.1v6.9h4.1V24h1.1V39.6z
        M137.8,36.4c0,0.7-0.1,1.4-0.5,2c-0.4,1-1.5,1.5-2.6,1.4c-0.9,0-1.8-0.3-2.5-0.9c-0.5-0.7-0.8-1.7-0.7-2.6v-8.8
      c0-0.6,0.1-1.2,0.2-1.8c0.5-1.2,1.7-2,3-1.9c0.7,0,1.4,0.2,2,0.6c1.1,0.8,1.1,2.2,1.1,3.4V36.4z M151.3,29.2c0,0.8-0.2,1.7-0.7,2.3
      c-0.8,0.7-1.8,1.1-2.8,1h-1.6v7.1H145V24h2.5c1-0.1,2,0.1,2.9,0.6c0.9,0.7,0.9,1.7,0.9,2.8V29.2z"/>
  </g>
</svg>
